# xmcd CD database file
#
# Track frame offsets:
#	150
#	28347
#	53724
#	77156
#	104065
#	135761
#	160806
#	183079
#	208498
#	244718
#
# Disc length: 3648 seconds
#
# Revision: 0
# Processed by: cddbd v1.5.2PL0 Copyright (c) Steve Scherf et al.
# Submitted via: CDex 1.77
#
DISCID=850e3e0a
DTITLE=Relaxation for Women - A Musical Escape - Balance
DYEAR=2010
DGENRE=New Age
TTITLE0=Surrender
TTITLE1=A Moment Longer
TTITLE2=Breathing Room
TTITLE3=Fluid Dreams
TTITLE4=Immersion
TTITLE5=Indigo Deep
TTITLE6=Courting Serenity
TTITLE7=Lavender
TTITLE8=Metamorphosis
TTITLE9=Return to Peace
EXTD=YEAR: 2010
EXTT0=
EXTT1=
EXTT2=
EXTT3=
EXTT4=
EXTT5=
EXTT6=
EXTT7=
EXTT8=
EXTT9=
PLAYORDER=
